<svg xmlns="http://www.w3.org/2000/svg" viewBox="0 0 128 128" role="img" aria-label="Competitor AI icon">
  <defs>
    <linearGradient id="bg" x1="0" y1="0" x2="1" y2="1">
      <stop offset="0%" stop-color="#1e3a8a"/>
      <stop offset="100%" stop-color="#0f172a"/>
    </linearGradient>
    <linearGradient id="accent" x1="0" y1="0" x2="1" y2="1">
      <stop offset="0%" stop-color="#22d3ee"/>
      <stop offset="100%" stop-color="#38bdf8"/>
    </linearGradient>
  </defs>
  <rect x="8" y="8" width="112" height="112" rx="24" fill="url(#bg)"/>
  <path d="M74 38c-5-4-11-6-18-6-17 0-30 13-30 30s13 30 30 30c7 0 13-2 18-6v-11c-4 4-10 7-16 7-11 0-20-9-20-20s9-20 20-20c6 0 12 3 16 7V38z" fill="#ffffff"/>
  <circle cx="82" cy="66" r="12" fill="none" stroke="url(#accent)" stroke-width="7"/>
  <path d="M90 74l14 14" stroke="url(#accent)" stroke-width="7" stroke-linecap="round"/>
</svg>
